{
  "accessors": [
    {
      "bufferView": 2,
      "componentType": 5126,
      "count": 660,
      "max": [
        73.776779174804688,
        341.70782470703125,
        250.44154357910156
      ],
      "min": [
        -73.776779174804688,
        -351.83645629882812,
        -71.755134582519531
      ],
      "type": "VEC3"
    },
    {
      "bufferView": 2,
      "byteOffset": 7920,
      "componentType": 5126,
      "count": 660,
      "max": [
        0.92872893810272217,
        0.99243146181106567,
        0.92770516872406006
      ],
      "min": [
        -0.97641444206237793,
        -0.98041033744812012,
        -0.92713111639022827
      ],
      "type": "VEC3"
    },
    {
      "bufferView": 1,
      "componentType": 5126,
      "count": 660,
      "max": [
        1.25,
        0.99797379970550537
      ],
      "min": [
        0.043413680046796799,
        0.0022869110107421875
      ],
      "type": "VEC2"
    },
    {
      "bufferView": 0,
      "componentType": 5125,
      "count": 768,
      "max": [
        659
      ],
      "min": [
        0
      ],
      "type": "SCALAR"
    },
    {
      "bufferView": 2,
      "byteOffset": 15840,
      "componentType": 5126,
      "count": 56,
      "max": [
        21.765678405761719,
        341.70782470703125,
        187.34048461914062
      ],
      "min": [
        -21.765678405761719,
        303.40875244140625,
        166.59930419921875
      ],
      "type": "VEC3"
    },
    {
      "bufferView": 2,
      "byteOffset": 16512,
      "componentType": 5126,
      "count": 56,
      "max": [
        0.4581349790096283,
        0.79231983423233032,
        0.98028874397277832
      ],
      "min": [
        -0.4581349790096283,
        -0.011581875383853912,
        0.58489185571670532
      ],
      "type": "VEC3"
    },
    {
      "bufferView": 1,
      "byteOffset": 5280,
      "componentType": 5126,
      "count": 56,
      "max": [
        0.76947945356369019,
        0.85560274124145508
      ],
      "min": [
        0.73052054643630981,
        0.82396316528320312
      ],
      "type": "VEC2"
    },
    {
      "bufferView": 0,
      "byteOffset": 3072,
      "componentType": 5125,
      "count": 72,
      "max": [
        55
      ],
      "min": [
        0
      ],
      "type": "SCALAR"
    },
    {
      "bufferView": 2,
      "byteOffset": 17184,
      "componentType": 5126,
      "count": 24,
      "max": [
        22.288469314575195,
        -311.83230590820312,
        250.44154357910156
      ],
      "min": [
        -22.288469314575195,
        -351.83645629882812,
        215.78878784179688
      ],
      "type": "VEC3"
    },
    {
      "bufferView": 2,
      "byteOffset": 17472,
      "componentType": 5126,
      "count": 24,
      "max": [
        0.86309176683425903,
        -0.0048011015169322491,
        0.93263554573059082
      ],
      "min": [
        -0.44883543252944946,
        -0.8689039945602417,
        0.20321661233901978
      ],
      "type": "VEC3"
    },
    {
      "bufferView": 1,
      "byteOffset": 5728,
      "componentType": 5126,
      "count": 24,
      "max": [
        0.76592367887496948,
        0.21538305282592773
      ],
      "min": [
        0.73521274328231812,
        0.18092775344848633
      ],
      "type": "VEC2"
    },
    {
      "bufferView": 0,
      "byteOffset": 3360,
      "componentType": 5125,
      "count": 24,
      "max": [
        23
      ],
      "min": [
        0
      ],
      "type": "SCALAR"
    }
  ],
  "asset": {
    "extras": {
      "author": "Micx Vi (https://sketchfab.com/micx64rus)",
      "license": "CC-BY-4.0 (http://creativecommons.org/licenses/by/4.0/)",
      "source": "https://sketchfab.com/3d-models/banana-1b6f7a19b53c4f50ad4e24620e594dbd",
      "title": "Banana (Банан)"
    },
    "generator": "Sketchfab-8.72.3",
    "version": "2.0"
  },
  "bufferViews": [
    {
      "buffer": 0,
      "byteLength": 3456,
      "byteOffset": 0,
      "name": "floatBufferViews",
      "target": 34963
    },
    {
      "buffer": 0,
      "byteLength": 5920,
      "byteOffset": 3456,
      "byteStride": 8,
      "name": "floatBufferViews",
      "target": 34962
    },
    {
      "buffer": 0,
      "byteLength": 17760,
      "byteOffset": 9376,
      "byteStride": 12,
      "name": "floatBufferViews",
      "target": 34962
    }
  ],
  "buffers": [
    {
      "byteLength": 27136,
      "uri": "scene.bin"
    }
  ],
  "extensionsRequired": [
    "KHR_materials_pbrSpecularGlossiness"
  ],
  "extensionsUsed": [
    "KHR_materials_pbrSpecularGlossiness"
  ],
  "materials": [
    {
      "doubleSided": true,
      "emissiveFactor": [
        0,
        0,
        0
      ],
      "extensions": {
        "KHR_materials_pbrSpecularGlossiness": {
          "diffuseFactor": [
            0.75,
            0.66862500000000002,
            0.052499999999999998,
            1
          ],
          "glossinessFactor": 0.047568284600000003,
          "specularFactor": [
            0,
            0,
            0
          ]
        }
      },
      "name": "material"
    },
    {
      "doubleSided": true,
      "emissiveFactor": [
        0,
        0,
        0
      ],
      "extensions": {
        "KHR_materials_pbrSpecularGlossiness": {
          "diffuseFactor": [
            0.16038907764825955,
            0.087278546156829007,
            0.0052253652574140276,
            1
          ],
          "glossinessFactor": 0.047568284600000003,
          "specularFactor": [
            0,
            0,
            0
          ]
        }
      },
      "name": "Mat.1"
    }
  ],
  "meshes": [
    {
      "name": "Cylinder_Mat_0",
      "primitives": [
        {
          "attributes": {
            "NORMAL": 1,
            "POSITION": 0,
            "TEXCOORD_0": 2
          },
          "indices": 3,
          "material": 0,
          "mode": 4
        }
      ]
    },
    {
      "name": "Cylinder_2_Mat.1_0",
      "primitives": [
        {
          "attributes": {
            "NORMAL": 5,
            "POSITION": 4,
            "TEXCOORD_0": 6
          },
          "indices": 7,
          "material": 1,
          "mode": 4
        }
      ]
    },
    {
      "name": "Cylinder_1_Mat.1_0",
      "primitives": [
        {
          "attributes": {
            "NORMAL": 9,
            "POSITION": 8,
            "TEXCOORD_0": 10
          },
          "indices": 11,
          "material": 1,
          "mode": 4
        }
      ]
    }
  ],
  "nodes": [
    {
      "children": [
        1
      ],
      "name": "RootNode (gltf orientation matrix)",
      "rotation": [
        -0.70710678118654746,
        -0,
        -0,
        0.70710678118654757
      ]
    },
    {
      "children": [
        2
      ],
      "matrix": [
        0.0011560881976038218,
        0,
        0,
        0,
        0,
        0.0011560881976038218,
        0,
        0,
        0,
        0,
        0.0011560881976038218,
        0,
        0,
        0,
        4.2632564145606011e-14,
        1
      ],
      "name": "RootNode (model correction matrix)"
    },
    {
      "children": [
        3
      ],
      "matrix": [
        1,
        0,
        0,
        0,
        0,
        0,
        1,
        0,
        0,
        -1,
        0,
        0,
        0,
        0,
        0,
        1
      ],
      "name": "bedbce499be547c5aca0769605a27634.fbx"
    },
    {
      "children": [
        4,
        6,
        8
      ],
      "name": "RootNode"
    },
    {
      "children": [
        5
      ],
      "matrix": [
        1,
        0,
        0,
        0,
        0,
        2.2204460492503131e-16,
        -1,
        0,
        0,
        1,
        2.2204460492503131e-16,
        0,
        0,
        -102.36241149902344,
        -7.6771807670593262,
        1
      ],
      "name": "Cylinder"
    },
    {
      "mesh": 0,
      "name": "Cylinder_Mat_0"
    },
    {
      "children": [
        7
      ],
      "matrix": [
        1,
        0,
        0,
        0,
        0,
        2.2204460492503131e-16,
        -1,
        0,
        0,
        1,
        2.2204460492503131e-16,
        0,
        0,
        -102.36241149902344,
        -7.6771807670593262,
        1
      ],
      "name": "Cylinder_2"
    },
    {
      "mesh": 1,
      "name": "Cylinder_2_Mat.1_0"
    },
    {
      "children": [
        9
      ],
      "matrix": [
        1,
        0,
        0,
        0,
        0,
        2.2204460492503131e-16,
        -1,
        0,
        0,
        1,
        2.2204460492503131e-16,
        0,
        0,
        -102.36241149902344,
        -7.6771807670593262,
        1
      ],
      "name": "Cylinder_1"
    },
    {
      "mesh": 2,
      "name": "Cylinder_1_Mat.1_0"
    }
  ],
  "scene": 0,
  "scenes": [
    {
      "name": "OSG_Scene",
      "nodes": [
        0
      ]
    }
  ]
}

